<svg width="30" height="35" viewBox="0 0 30 35" fill="none" xmlns="http://www.w3.org/2000/svg">
<path fill-rule="evenodd" clip-rule="evenodd" d="M0.335571 12.27C0.335571 10.7316 1.58276 9.48438 3.12124 9.48438H27.0822C28.6206 9.48438 29.8678 10.7316 29.8678 12.27V21.8488C29.8678 28.6775 24.3321 34.2132 17.5034 34.2132H12.7C5.8713 34.2132 0.335571 28.6775 0.335571 21.8488V12.27ZM3.12124 11.8721C2.90145 11.8721 2.72329 12.0503 2.72329 12.27V21.8488C2.72329 27.3588 7.19 31.8255 12.7 31.8255H17.5034C23.0134 31.8255 27.4801 27.3588 27.4801 21.8488V12.27C27.4801 12.0503 27.3019 11.8721 27.0822 11.8721H3.12124Z" fill="#93CC1A"/>
<path fill-rule="evenodd" clip-rule="evenodd" d="M11.0921 3.43799C10.0937 4.0954 9.50869 5.00536 9.50869 6.21103V17.3819C9.50869 18.0413 8.97418 18.5758 8.31483 18.5758C7.65548 18.5758 7.12097 18.0413 7.12097 17.3819V6.21103C7.12097 4.06549 8.23254 2.46201 9.77894 1.44377C11.2903 0.448611 13.23 -0.00973498 15.1009 -0.00976562C16.9719 -0.00979636 18.9116 0.448486 20.423 1.44361C21.9694 2.46183 23.081 4.0653 23.081 6.21087V17.3819C23.081 18.0413 22.5464 18.5758 21.8871 18.5758C21.2277 18.5758 20.6932 18.0413 20.6932 17.3819V6.21087C20.6932 5.00517 20.1083 4.09522 19.1099 3.43785C18.0764 2.7574 16.6231 2.37792 15.101 2.37795C13.5788 2.37797 12.1255 2.75749 11.0921 3.43799Z" fill="#93CC1A"/>
</svg>
