<svg width="14" height="15" viewBox="0 0 14 15" fill="none" xmlns="http://www.w3.org/2000/svg">
<path d="M13.611 0.359863H5.05539C4.84043 0.359863 4.66649 0.533806 4.66649 0.748764C4.66649 0.963722 4.84043 1.13767 5.05539 1.13767H12.6722L0.113758 13.6961C-0.0381635 13.848 -0.0381635 14.0941 0.113758 14.246C0.189701 14.3219 0.289232 14.3599 0.388727 14.3599C0.488222 14.3599 0.587717 14.3219 0.663696 14.246L13.2221 1.68756V9.30433C13.2221 9.51929 13.396 9.69323 13.611 9.69323C13.826 9.69323 13.9999 9.51929 13.9999 9.30433V0.748764C13.9999 0.533806 13.8259 0.359863 13.611 0.359863Z" fill="#050B20"/>
</svg>
