<svg width="13" height="13" viewBox="0 0 13 13" fill="none" xmlns="http://www.w3.org/2000/svg">
<path d="M5.84922 0.2C4.81589 0.2 3.87422 0.45 3.02422 0.95C2.17422 1.45 1.49089 2.13333 0.974219 3C0.457552 3.86667 0.199219 4.80833 0.199219 5.825C0.199219 6.84167 0.457552 7.78333 0.974219 8.65C1.49089 9.51667 2.17422 10.2 3.02422 10.7C3.87422 11.2 4.81589 11.45 5.84922 11.45C6.48255 11.45 7.09922 11.3417 7.69922 11.125C8.29922 10.9083 8.84922 10.6167 9.34922 10.25L11.6992 12.55C11.7992 12.6833 11.9409 12.75 12.1242 12.75C12.3076 12.75 12.4576 12.6917 12.5742 12.575C12.6909 12.4583 12.7492 12.3083 12.7492 12.125C12.7492 11.9417 12.6826 11.8 12.5492 11.7L10.2492 9.35C10.6159 8.85 10.9076 8.3 11.1242 7.7C11.3409 7.1 11.4492 6.48333 11.4492 5.85C11.4492 4.81667 11.1992 3.86667 10.6992 3C10.1992 2.13333 9.51589 1.45 8.64922 0.95C7.78255 0.45 6.84922 0.2 5.84922 0.2ZM5.84922 1.45C6.64922 1.45 7.38255 1.65 8.04922 2.05C8.71589 2.45 9.24089 2.98333 9.62422 3.65C10.0076 4.31667 10.1992 5.04167 10.1992 5.825C10.1992 6.60833 10.0076 7.34167 9.62422 8.025C9.24089 8.70833 8.71589 9.24167 8.04922 9.625C7.38255 10.0083 6.64922 10.2 5.84922 10.2C5.04922 10.2 4.31589 10.0083 3.64922 9.625C2.98255 9.24167 2.44922 8.70833 2.04922 8.025C1.64922 7.34167 1.44922 6.60833 1.44922 5.825C1.44922 5.04167 1.64922 4.31667 2.04922 3.65C2.44922 2.98333 2.98255 2.45 3.64922 2.05C4.31589 1.65 5.04922 1.45 5.84922 1.45Z" fill="white"/>
</svg>
